<?xml version="1.0" encoding="UTF-8"?>
<svg id="Capa_1" data-name="Capa 1" xmlns="http://www.w3.org/2000/svg" viewBox="0 0 800 800">
  <defs>
    <style>
      .cls-1 {
        fill: #fff;
      }
    </style>
  </defs>
  <path class="cls-1" d="M697.64,363.5c-.15-1.49-.36-2.95-.61-4.4-2.12-14.42-5.34-27.52-9.55-44.62-.8-3.26-1.65-6.68-2.52-10.29-5.31-21.83-6.06-44.02-2.24-65.97,5.32-30.52,8.25-66.97-10.34-105.92-2.89-6.06-6.52-11.9-10.7-17.51-.81-2.16-2.22-4.12-4.21-5.6-.19-.14-.37-.27-.56-.4-24.06-28.63-62.41-50.96-93.5-65.72-44.17-20.97-96.15-37.03-132.48-40.94-.29-.04-.59-.07-.89-.1h-.05c-.13-.02-.26-.04-.39-.05l-2.34-.24c-5.56-.68-11.44-1.15-17.48-1.41-3.89-.22-7.18-.33-9.78-.33s-5.95.11-9.9.34c-5.39.24-10.77.66-16,1.27-36.16,3.51-88.95,19.28-134.53,40.18-40.88,18.74-93.74,49.66-113.34,90.51-19.03,39.64-15.88,76.36-9.65,110.14,3.8,20.59,3.06,42.21-2.18,64.28-.91,3.84-1.79,7.46-2.61,10.9-3.48,14.45-6.25,25.93-8.22,37.95-.71,3.08-1.22,6.25-1.49,9.52-.03.4-.04.8-.04,1.19-1.34,11.25-2.04,23.75-2.04,39.97,0,79.53,17.31,142.75,51.45,187.9,30.73,40.65,74.28,67.29,133.12,81.45,2.78.67,5.56.34,7.98-.74,15.35,20.52,34.07,37.51,54.92,48.67.54.29,1.09.52,1.64.72.68,1.91,1.35,3.8,2.02,5.62,15.38,42.09,29.57,70.12,48.85,70.12s33.48-28.03,48.85-70.13c.67-1.83,1.34-3.72,2.02-5.63.56-.2,1.11-.44,1.65-.72,20.84-11.15,39.57-28.14,54.91-48.65,1.57.7,3.29,1.08,5.06,1.08.97,0,1.95-.11,2.93-.35,58.85-14.15,102.39-40.79,133.12-81.45,34.14-45.16,51.45-108.38,51.45-187.9,0-17.43-.81-30.71-2.36-42.75ZM376.63,26.47c.08,0,.16-.02.24-.03,4.7-.54,9.54-.93,14.41-1.14.05,0,.11,0,.17,0,3.47-.2,6.43-.3,8.56-.3s5.04.1,8.45.3c.06,0,.12,0,.18,0,5.46.23,10.75.66,15.72,1.27.09.01.18.02.28.03l2.25.23c.28.03.56.06.86.09.14.02.27.03.41.05,33.78,3.6,82.67,18.78,124.55,38.68,13.22,6.28,25.33,12.81,36.26,19.5-18.7.26-37.87,5.71-57.43,16.37-20.8,11.34-47.92,3.94-76.63-3.89-18.26-4.98-37.14-10.13-54.88-10.13s-36.62,5.15-54.88,10.13c-28.71,7.83-55.83,15.23-76.63,3.89-19.75-10.77-39.12-16.22-57.99-16.37,53.46-32.12,125.76-54.79,166.14-58.68ZM275,550c0-38.05,4.49-55.6,10.5-65.76,7.29,34.14,15.69,70.65,24.25,104.74,9.11,36.26,18.15,68.96,26.72,96.81-36.68-31.25-61.47-84.23-61.47-135.79ZM400,773.74c-3.9-4.12-13.53-17.97-29.23-63.33-12.04-34.78-25.6-82.29-39.23-137.4-24.8-100.3-44.04-202.24-44.04-223.01,0-16.58,14.84-55.48,43.19-97.72,30.04-44.75,56.45-64.78,69.31-64.78s39.27,20.03,69.31,64.78c28.35,42.24,43.19,81.14,43.19,97.72,0,20.77-19.24,122.71-44.04,223.01-13.63,55.11-27.19,102.62-39.23,137.4-15.7,45.36-25.34,59.21-29.23,63.32ZM463.53,685.79c8.58-27.84,17.61-60.54,26.72-96.8,8.51-33.89,16.86-70.16,24.12-104.12,6.51,10.56,10.63,26.98,10.63,65.14,0,51.56-24.8,104.54-61.47,135.79ZM628.61,579.08c-24.4,32.28-58.43,54.61-103.63,68.05,15.76-29.73,25.02-63.72,25.02-97.12,0-61.88-10.73-77.3-28.39-95.33l-.79-.81c9.98-49.36,16.68-89.73,16.68-103.86,0-28.31-23.82-76.48-47.43-111.65-19.01-28.33-56-75.85-90.07-75.85s-71.05,47.52-90.07,75.85c-23.61,35.18-47.43,83.34-47.43,111.65,0,14.13,6.69,54.47,16.67,103.8-16.58,14.73-29.17,31.81-29.17,96.2,0,33.4,9.26,67.39,25.02,97.12-45.2-13.44-79.23-35.77-103.63-68.05-30.78-40.72-46.39-98.87-46.39-172.83,0-19.47,1.04-32.95,3.11-45.86,5.7-22.57,29.83-36.17,46.78-36.17,7.47,0,12.96,4.55,21.12,12.03,10.31,9.46,25.89,23.75,49.4,11.08,6.08-3.28,8.35-10.86,5.07-16.94-3.28-6.08-10.86-8.34-16.93-5.07-6.89,3.72-9.4,2.8-20.63-7.5-9.04-8.29-20.28-18.61-38.02-18.61-11.83,0-24.23,3.5-35.39,9.81,5.33-24.28,5.9-48.2,1.66-71.14-5.09-27.59-9.12-59.95,7.6-94.79,2.23-4.65,5.11-9.24,8.53-13.75.06-.04.12-.08.18-.12,31.59-23.55,63.06-25.38,99.04-5.76,29.64,16.16,64.46,6.66,95.18-1.72,17.44-4.76,33.91-9.25,48.3-9.25s30.86,4.5,48.3,9.25c18.52,5.05,38.53,10.51,58,10.51,12.83,0,25.42-2.37,37.19-8.79,34.87-19.02,65.5-17.89,96.11,3.64,4.27,5.35,7.71,10.69,10.23,15.97,15.52,32.51,13.15,62.88,8.27,90.85-4.36,25-3.57,50.27,2.33,75.13-11.18-6.33-23.59-9.84-35.43-9.84-17.74,0-28.98,10.32-38.02,18.61-11.23,10.31-13.74,11.22-20.63,7.5-6.07-3.27-13.66-1.01-16.93,5.07s-1.01,13.66,5.07,16.94c23.5,12.67,39.08-1.62,49.4-11.08,8.16-7.48,13.65-12.03,21.12-12.03,17.5,0,42.68,14.51,47.28,38.43,1.81,12.27,2.72,25.41,2.72,43.6,0,73.96-15.61,132.11-46.4,172.82Z"/>
  <path class="cls-1" d="M187.5,162.7c-14.95,0-25,17.58-25,43.75s10.05,43.75,25,43.75,25-17.58,25-43.75-10.05-43.75-25-43.75Z"/>
  <path class="cls-1" d="M612.5,250.2c14.95,0,25-17.58,25-43.75s-10.05-43.75-25-43.75-25,17.58-25,43.75,10.05,43.75,25,43.75Z"/>
</svg>